<svg
  version="1.0"
  id="Layer_1"
  xmlns="http://www.w3.org/2000/svg"
  xmlns:xlink="http://www.w3.org/1999/xlink"
  width="100px"
  height="100px"
  viewBox="0 0 64 64"
  enable-background="new 0 0 64 64"
  xml:space="preserve"
>
  <g id="SVGRepo_bgCarrier" stroke-width="0"></g>
  <g
    id="SVGRepo_tracerCarrier"
    stroke-linecap="round"
    stroke-linejoin="round"
  ></g>
  <g id="SVGRepo_iconCarrier">
    {" "}
    <path
      fill="#FFBC5E"
      d="M32,2C15.432,2,2,15.432,2,32s13.432,30,30,30s30-13.432,30-30S48.568,2,32,2z M32,60c-15.439,0-28-12.561-28-28 S16.561,4,32,4s28,12.561,28,28S47.439,60,32,60z M32,18c-6.617,0-12,5.383-12,12s5.383,12,12,12s12-5.383,12-12 S38.617,18,32,18z M32,50c-11.028,0-20-8.972-20-20s8.972-20,20-20s20,8.972,20,20S43.028,50,32,50z"
    ></path>{" "}
  </g>
</svg>